

<svg viewBox="0 0 180 20" xmlns="http://www.w3.org/2000/svg">
  <!-- Board shapes -->
    <!-- board yellow background -->
    <rect x="0" y="0" width="180" height="20" fill="#0bc1b2" />

      <path d="M42,10 L44,6 L46,14 L48,5 L50,13 L52,7 L54,12 L56,8 L58,11" 
        stroke="#089c8f" 
        stroke-width="2" 
        fill="none" 
        stroke-linecap="round" 
        stroke-linejoin="round"/>

      <path d="M82,10 L84,6 L86,14 L88,5 L90,13 L92,7 L94,12 L96,8 L98,11" 
        stroke="#089c8f" 
        stroke-width="2" 
        fill="none" 
        stroke-linecap="round" 
        stroke-linejoin="round"/>

      <path d="M102,10 L104,6 L106,14 L108,5 L110,13 L112,7 L114,12 L116,8 L118,11" 
        stroke="#089c8f" 
        stroke-width="2" 
        fill="none" 
        stroke-linecap="round" 
        stroke-linejoin="round"/>

      <path d="M122,10 L124,6 L126,14 L128,5 L130,13 L132,7 L134,12 L136,8 L138,11" 
        stroke="#089c8f" 
        stroke-width="2" 
        fill="none" 
        stroke-linecap="round" 
        stroke-linejoin="round"/>

    
</svg>